# xmcd CD database generated by RipIT
#
# Track frame offsets:
# 150
# 26253
# 43831
# 67575
# 89257
# 113352
# 131718
# 158230
# 185834
# 207286
#
# Disc length: 3095 seconds
#
# Revision: 0
# Processed by: cddbd v1.5.2PL0 Copyright (c) Steve Scherf et al.
# Submitted via: RipIT 3.9.0 www.suwald.com/ripit/ripit.html on 2017-11-03 at 13:05
#
DISCID=7d0c150a
DTITLE=Motanka - Mauerpark
DYEAR=2017
DGENRE=Alternative
TTITLE0=Des' u gorah
TTITLE1=Fire burns
TTITLE2=Zagubyv dushu
TTITLE3=Bosymy nizhkamy
TTITLE4=Verba
TTITLE5=Light
TTITLE6=Mom's hands
TTITLE7=The air
TTITLE8=Dream
TTITLE9=Don't care
EXTD=
EXTT0=
EXTT1=
EXTT2=
EXTT3=
EXTT4=
EXTT5=
EXTT6=
EXTT7=
EXTT8=
EXTT9=
PLAYORDER=
